# xmcd
#
# Track frame offsets:
#	150
#	26427
#	52245
#	83436
#	112501
#	135070
#	168766
#	189664
#	217789
#	259937
#	283130
#	312175
#
# Disc length: 4493 seconds
#
# Revision: 0
# Processed by: cddbd v1.5.2PL0 Copyright (c) Steve Scherf et al.
# Submitted via: EasyCDDAExtractor 15.2.5.1
#
DISCID=92118b0c
DTITLE=Dżem - Muza
DYEAR=2010
DGENRE=Blues-rock
TTITLE0=Koniecznie
TTITLE1=Partyzant
TTITLE2=Ani dużo, ani mało
TTITLE3=Bujam się
TTITLE4=Wolności dni
TTITLE5=To wszystko co mam
TTITLE6=Do przodu
TTITLE7=Za to, że żyję
TTITLE8=Leci muza
TTITLE9=Nie patrz tak na mnie
TTITLE10=Strach
TTITLE11=Szara mgła
EXTD=
EXTT0=
EXTT1=
EXTT2=
EXTT3=
EXTT4=
EXTT5=
EXTT6=
EXTT7=
EXTT8=
EXTT9=
EXTT10=
EXTT11=
PLAYORDER=
